<?xml version="1.0" encoding="UTF-8"?>
<svg version="1.1" xmlns="http://www.w3.org/2000/svg" width="860" height="900">
<path d="M0 0 C36.84317224 -0.62948133 73.50895298 4.80728117 109.07421875 14.12109375 C110.44392822 14.4780835 110.44392822 14.4780835 111.84130859 14.84228516 C163.28418152 28.55574384 214.69195019 55.30521645 254.80737305 90.29345703 C257.8625157 92.95294173 260.98151124 95.53019218 264.1015625 98.11328125 C270.76700721 103.70804053 276.96808129 109.70901385 283.09619141 115.88232422 C284.83014738 117.62705923 286.57463004 119.36075631 288.3203125 121.09375 C295.0304095 127.79595849 301.1886456 134.67554583 307.07421875 142.12109375 C307.93724672 143.1489464 308.80565151 144.17235677 309.68359375 145.1875 C321.92853344 159.46581471 332.3263078 175.06396223 342.07421875 191.12109375 C342.54069824 191.88502441 343.00717773 192.64895508 343.48779297 193.43603516 C351.26087993 206.24244758 357.8657423 219.49440999 364.07421875 233.12109375 C364.43080566 233.89291992 364.78739258 234.66474609 365.15478516 235.45996094 C400.85245515 313.32996363 406.99693339 404.18415158 374.65234375 529.32421875 C369.04392912 544.3452382 362.48502345 558.96672577 355.08056641 573.18652344 C354.020273 575.22479732 352.97517334 577.27050267 351.9296875 579.31640625 C344.38099098 593.96104396 335.62182595 607.70566027 326.07421875 621.12109375 C325.4296875 622.03117188 324.78515625 622.94125 324.12109375 623.87890625 C316.48467617 634.52643158 308.49806605 644.83896785 299.55859375 654.42578125 C297.62156656 656.52727301 295.74924804 658.65432219 293.88671875 660.8203125 C289.569871 665.76946105 284.9685597 670.41820618 280.32421875 675.05859375 C279.43822998 675.94450195 278.55224121 676.83041016 277.6394043 677.74316406 C272.41124815 682.92578296 267.16250151 687.82997195 261.34375 692.34375 C259.13977049 694.06975805 257.11918615 695.8986339 255.07421875 697.80859375 C203.38098656 744.22133448 132.40762559 772.80636001 64.57421875 783.43359375 C63.63449219 783.58086914 62.69476563 783.72814453 61.7265625 783.87988281 C42.8793379 786.61721781 24.10045962 787.49863677 5.07421875 787.43359375 C3.96070038 787.43177094 2.84718201 787.42994812 1.69992065 787.42807007 C-16.01883647 787.37940392 -33.37707672 786.74926058 -50.92578125 784.12109375 C-52.63121094 783.87166016 -52.63121094 783.87166016 -54.37109375 783.6171875 C-120.74361193 773.5944918 -185.6703517 746.5692722 -237.92578125 704.12109375 C-238.82554687 703.40050781 -239.7253125 702.67992187 -240.65234375 701.9375 C-243.43189036 699.69063307 -246.17884664 697.40766951 -248.92578125 695.12109375 C-250.35277344 693.97447266 -250.35277344 693.97447266 -251.80859375 692.8046875 C-260.45147387 685.74474747 -268.33820106 677.92514325 -276.23828125 670.05859375 C-276.79790558 669.50414581 -277.35752991 668.94969788 -277.93411255 668.37844849 C-285.07224533 661.29236445 -291.67719242 654.01921578 -297.92578125 646.12109375 C-298.99814562 644.8270215 -300.07453065 643.53626265 -301.15625 642.25 C-336.64735184 599.63356735 -360.98697971 549.32011917 -375.92578125 496.12109375 C-376.14476074 495.3439502 -376.36374023 494.56680664 -376.58935547 493.76611328 C-397.52709948 418.17784592 -392.73593945 334.76502832 -337.92578125 199.12109375 C-323.18326423 173.21148743 -305.16718903 149.57694986 -285.140625 127.55859375 C-283.55941887 125.81843039 -281.99040878 124.06715294 -280.4296875 122.30859375 C-276.09996009 117.45824462 -271.75486341 112.90694569 -266.77734375 108.72265625 C-264.95141605 107.14326731 -263.28772551 105.48402405 -261.61328125 103.74609375 C-257.94001961 100.01465828 -253.93395752 96.76934718 -249.85546875 93.4921875 C-246.98110955 91.16587279 -244.17429529 88.77330381 -241.36328125 86.37109375 C-223.10576196 71.1721795 -202.9479377 58.52722346 -182.06396484 47.28271484 C-180.04235219 46.18442379 -178.0396028 45.05797801 -176.0390625 43.921875 C-122.85274844 14.15331586 -60.36956735 1.86214586 0 0 Z " fill="#3D3C65" transform="translate(425.92578125,43.87890625)"/>
<path d="M0 0 C1.01416992 0.24145752 1.01416992 0.24145752 2.04882812 0.48779297 C25.28452724 6.13400277 45.59828848 17.94116768 62.58349609 34.61865234 C63.85377859 35.85740767 65.15366846 37.06563017 66.45703125 38.26953125 C85.80304858 56.53135847 100.11973142 85.09929293 102.3046875 111.7109375 C102.31100542 114.16860693 102.25216175 116.55683286 102 119 C102.92941406 118.72285156 103.85882812 118.44570313 104.81640625 118.16015625 C106.67072266 117.61681641 106.67072266 117.61681641 108.5625 117.0625 C109.78066406 116.70285156 110.99882813 116.34320313 112.25390625 115.97265625 C132.45253034 110.72817513 153.15611846 113.74476199 171.16503906 123.91503906 C175.71942081 126.60791725 179.92149771 129.6367831 184 133 C184.63035156 133.51691406 185.26070312 134.03382813 185.91015625 134.56640625 C194.88391064 142.72250648 201.10053348 154.68390109 205 166 C205.31839844 166.87140625 205.63679688 167.7428125 205.96484375 168.640625 C210.1202829 182.04526741 209.62096206 198.81432377 205 212 C204.7215625 212.91523437 204.443125 213.83046875 204.15625 214.7734375 C200.39930246 226.33576744 193.44447297 235.40789638 185 244 C184.38640625 244.62648438 183.7728125 245.25296875 183.140625 245.8984375 C164.19046212 263.79581355 139.43801855 265.30851777 114.75366211 265.2746582 C112.64150819 265.27901327 110.52935585 265.28419905 108.41720581 265.29014587 C102.72158176 265.30345201 97.02602438 265.30412466 91.33038783 265.30158257 C86.56826231 265.30050856 81.80615005 265.30540646 77.04402739 265.310188 C65.8162066 265.32125105 54.58841929 265.32173665 43.3605957 265.31567383 C31.77921279 265.30961658 20.19795082 265.32199671 8.61658853 265.3432439 C-1.34123447 265.36084035 -11.29901888 265.36686492 -21.25685686 265.36360615 C-27.19865146 265.36179229 -33.14035947 265.36444117 -39.08213997 265.37832069 C-44.65957714 265.39086486 -50.23682443 265.38898735 -55.81425858 265.37590981 C-57.86173122 265.37353819 -59.90921711 265.37629955 -61.95667458 265.38453293 C-64.74823988 265.39495109 -67.53916192 265.38693988 -70.33070374 265.3742218 C-71.14314374 265.38159609 -71.95558374 265.38897037 -72.79264313 265.39656812 C-77.37187105 265.35258233 -80.3850316 264.88776821 -84 262 C-86.062091 258.90686349 -86.25070191 258.26512626 -86.25726891 254.76892185 C-86.2637178 253.9015334 -86.27016669 253.03414495 -86.276811 252.14047199 C-86.2737138 251.18698382 -86.2706166 250.23349565 -86.26742554 249.25111389 C-86.27195665 248.23865189 -86.27648776 247.2261899 -86.28115618 246.18304724 C-86.29386432 242.77441085 -86.29217569 239.36593292 -86.29052734 235.95727539 C-86.29650854 233.52000217 -86.30331313 231.08273084 -86.31088257 228.64546204 C-86.32674924 222.70284383 -86.3329927 216.76028845 -86.33410732 210.81765492 C-86.33505709 205.98842575 -86.33916378 201.15920969 -86.34550858 196.32998466 C-86.36312395 182.64425806 -86.37234688 168.95856285 -86.37084763 155.27282483 C-86.37076772 154.53479703 -86.3706878 153.79676923 -86.37060547 153.03637695 C-86.37052371 152.29745024 -86.37044195 151.55852352 -86.37035771 150.79720508 C-86.36954453 138.81757055 -86.38868936 126.83806166 -86.4168822 114.85846347 C-86.4455887 102.56380528 -86.45942376 90.26920842 -86.45769465 77.97451586 C-86.45703001 71.06956104 -86.46255446 64.16473798 -86.48405075 57.25981331 C-86.5041306 50.76818165 -86.50361175 44.27675672 -86.48901749 37.78510857 C-86.48691853 35.39858469 -86.49169442 33.01204372 -86.5037384 30.62554932 C-86.51908278 27.3753237 -86.50995397 24.12607307 -86.49447632 20.87586975 C-86.50476344 19.9246123 -86.51505057 18.97335485 -86.52564943 17.99327141 C-86.45816865 11.61029386 -86.45816865 11.61029386 -84.08628273 8.45087337 C-77.509989 3.87749061 -69.53992674 2.25328077 -61.875 0.3125 C-61.02808594 0.09795166 -60.18117188 -0.11659668 -59.30859375 -0.33764648 C-40.2603231 -4.99013459 -19.01334916 -4.78182882 0 0 Z " fill="#FEFEFD" transform="translate(533,308)"/>
<path d="M0 0 C4.61132357 0.80900414 5.77576546 1.87129581 8.5625 5.625 C9.35167915 9.18109444 9.30279296 12.70422997 9.30859375 16.3359375 C9.33094589 17.49233734 9.35329803 18.64873718 9.37632751 19.84017944 C9.42694975 22.54036624 9.46829005 25.2394414 9.49871826 27.93981934 C9.56243669 33.15132688 9.68718408 38.36096624 9.81298828 43.57128906 C10.11931248 56.46352088 10.37700059 69.3565283 10.625 82.25 C10.64707016 83.39307869 10.66914032 84.53615738 10.69187927 85.71387482 C12.66571617 188.32441252 12.66571617 188.32441252 9.5625 233.625 C9.49160156 234.75236572 9.42070312 235.87973145 9.34765625 237.04125977 C9.27546875 238.02666748 9.20328125 239.0120752 9.12890625 240.02734375 C9.04104858 241.2647229 9.04104858 241.2647229 8.95141602 242.52709961 C8.5625 244.625 8.5625 244.625 6.4375 247.8125 C2.76913342 250.12516589 0.82183552 250.39942464 -3.4375 249.625 C-7.4030087 245.78651009 -8.05344032 242.69696126 -8.484375 237.2890625 C-8.54552994 236.53746353 -8.60668488 235.78586456 -8.66969299 235.01148987 C-8.86752905 232.42544735 -9.03056131 229.83883584 -9.1875 227.25 C-9.24787445 226.31910553 -9.3082489 225.38821106 -9.37045288 224.42910767 C-13.18110866 163.70695859 -10.39619749 102.27236357 -8.62287807 41.51728725 C-8.49416084 37.00307279 -8.39423595 32.48954859 -8.32347584 27.97405815 C-8.28952376 25.90265763 -8.24756868 23.83159229 -8.20249939 21.76040649 C-8.15000365 19.28002965 -8.11163694 16.79929397 -8.09059143 14.31845093 C-7.89578048 6.43456559 -7.89578048 6.43456559 -5.60961914 2.39599609 C-3.4375 0.625 -3.4375 0.625 0 0 Z " fill="#FCFCFB" transform="translate(430.4375,322.375)"/>
<path d="M0 0 C3.6875 0.3125 3.6875 0.3125 5.8740387 1.96469116 C8.15076446 4.91226819 8.25375117 6.47976344 8.39038086 10.18994141 C8.41794684 10.82560846 8.44551283 11.46127552 8.47391415 12.11620522 C8.5683585 14.51468802 8.62825032 16.91288965 8.6875 19.3125 C8.75075919 21.43626331 8.81417677 23.56002191 8.87771606 25.68377686 C9.07939976 32.83195961 9.24003305 39.98083092 9.39468122 47.13014174 C9.473909 50.76435127 9.55665723 54.39848098 9.63890076 58.03262329 C9.77643521 64.13302802 9.91139419 70.23348537 10.04467773 76.33398438 C10.19778403 83.34077064 10.35454232 90.34746761 10.51337105 97.35412633 C10.66738382 104.15052961 10.81919193 110.94698032 10.9698925 117.74345779 C11.03346112 120.60982304 11.09769181 123.47617224 11.16247749 126.34251022 C12.05843244 166.10046407 12.05843244 166.10046407 11.06640625 181.5234375 C11.00218979 182.58309723 10.93797333 183.64275696 10.87181091 184.73452759 C10.73717629 186.94084222 10.60013544 189.14701133 10.46069336 191.35302734 C10.24905271 194.70249202 10.0447901 198.05234488 9.84179688 201.40234375 C9.70875741 203.56773443 9.57530828 205.73309999 9.44140625 207.8984375 C9.3809462 208.8820224 9.32048615 209.8656073 9.25819397 210.8789978 C9.07975019 213.69110877 8.88592756 216.50173453 8.6875 219.3125 C8.62392303 220.31613586 8.56034607 221.31977173 8.49484253 222.3538208 C8.42298737 223.33356873 8.3511322 224.31331665 8.27709961 225.32275391 C8.21646835 226.20299225 8.1558371 227.08323059 8.09336853 227.99014282 C7.6875 230.3125 7.6875 230.3125 5.5 233.5625 C2.6875 235.3125 2.6875 235.3125 -0.375 235.4375 C-4.10984712 234.00713302 -5.17863137 232.68982397 -7.3125 229.3125 C-7.79728716 226.39208423 -8.05447253 223.81094247 -8.140625 220.87890625 C-8.17949326 220.03639313 -8.21836151 219.19388 -8.25840759 218.32583618 C-8.38088017 215.50930131 -8.47309694 212.6927672 -8.5625 209.875 C-8.63824493 207.84480111 -8.71417713 205.81460921 -8.7902832 203.78442383 C-9.64830282 179.29791887 -9.54425734 154.80897229 -9.3125 130.3125 C-9.30546555 129.56282707 -9.29843109 128.81315414 -9.29118347 128.04076385 C-9.067272 104.36178075 -8.76361529 80.6842458 -8.40971279 57.00687408 C-8.32055704 50.99196957 -8.24507942 44.97697722 -8.17216492 38.96185303 C-8.11847822 34.77697981 -8.05273728 30.5923869 -7.98165894 26.40777588 C-7.95260819 24.57707723 -7.92832559 22.74629565 -7.90921021 20.91546631 C-7.8827686 18.48094365 -7.83857293 16.0474271 -7.7890625 13.61328125 C-7.76924316 12.30528564 -7.74942383 10.99729004 -7.72900391 9.6496582 C-7.06871286 4.35920196 -5.46290084 0.515368 0 0 Z " fill="#FCFBFB" transform="translate(404.3125,337.6875)"/>
<path d="M0 0 C2.30086634 1.64195434 2.92354887 2.62036731 3.48521423 5.40942383 C3.53641922 6.39450928 3.58762421 7.37959473 3.64038086 8.39453125 C3.70490448 9.56322754 3.7694281 10.73192383 3.83590698 11.93603516 C3.89244495 13.29061455 3.94703026 14.64527639 4 16 C4.03139698 16.73426208 4.06279396 17.46852417 4.09514236 18.22503662 C4.35508962 24.37793321 4.5580392 30.53228036 4.75390625 36.6875 C4.81969257 38.71346175 4.88552512 40.73942201 4.95140076 42.76538086 C5.08883375 47.01832555 5.22372619 51.27134269 5.35717773 55.52441406 C5.4912164 59.78434538 5.62985243 64.04408261 5.77319336 68.30371094 C8.39758342 146.40845135 8.39758342 146.40845135 5.5625 181.8125 C5.4250001 183.70757892 5.28894514 185.60276321 5.15429688 187.49804688 C4.8025148 192.33529509 4.44412031 197.17025177 4 202 C3.93714813 202.74188568 3.87429626 203.48377136 3.80953979 204.24813843 C3.26349065 209.69991342 3.26349065 209.69991342 0.75 212.5625 C-2 214 -2 214 -4.6875 213.9375 C-7 213 -7 213 -9 210 C-9.43846499 207.29308766 -9.75862327 204.66384746 -10 201.9375 C-10.07976074 201.06955811 -10.15952148 200.20161621 -10.24169922 199.30737305 C-10.51311762 196.20616655 -10.75985313 193.10378502 -11 190 C-11.13970215 188.21287598 -11.13970215 188.21287598 -11.28222656 186.38964844 C-12.49707213 170.21778897 -13.16967229 154.0846869 -13.140625 137.8671875 C-13.14011517 137.0155068 -13.13960533 136.1638261 -13.13908005 135.2863369 C-13.11112672 112.2149061 -12.47985012 89.15474588 -11.828125 66.09399414 C-11.65435596 59.93385577 -11.49444996 53.77343585 -11.33771706 47.61284351 C-11.21363781 42.81119232 -11.08119424 38.00979923 -10.94630051 33.20844078 C-10.88361916 30.93316079 -10.82382321 28.6577993 -10.76704788 26.38236427 C-10.68756959 23.23612027 -10.59650032 20.09041731 -10.50244141 16.94458008 C-10.47114891 15.55873718 -10.47114891 15.55873718 -10.43922424 14.14489746 C-10.28561425 9.43797683 -9.95788293 5.37009194 -8 1 C-5.20129973 -0.39935013 -3.09501208 -0.25265405 0 0 Z " fill="#FBFBFA" transform="translate(356,359)"/>
<path d="M0 0 C3.42229938 1.190365 4.13192045 1.86397225 5.875 5 C6.18174377 7.67470846 6.3162609 10.12468447 6.31640625 12.80078125 C6.32893433 13.59980865 6.3414624 14.39883606 6.35437012 15.22207642 C6.38068178 16.98243121 6.40043927 18.74289283 6.4145813 20.50338745 C6.45483794 25.43758651 6.54331068 30.37103045 6.625 35.3046875 C6.64978172 36.91593758 6.64978172 36.91593758 6.67506409 38.55973816 C6.8182141 47.25412061 7.07546106 55.94254563 7.375 64.6328125 C7.3979287 65.29845592 7.42085739 65.96409935 7.4444809 66.64991379 C7.53808285 69.36070602 7.63199044 72.07148744 7.72629929 74.78225517 C8.88908136 108.32833351 9.40568391 141.5928673 7.86288452 175.13723755 C7.74673289 177.69542306 7.63744717 180.2539303 7.53530884 182.81271362 C7.38773139 186.39763182 7.20821445 189.97953892 7.01953125 193.5625 C6.97969116 194.64402847 6.93985107 195.72555695 6.89880371 196.83985901 C6.61179894 201.66446053 6.42941051 204.25083663 3.4987793 208.2109375 C0.875 210 0.875 210 -2.25 210.0625 C-5.67816317 208.79557013 -6.36923375 208.17318009 -8.125 205 C-8.72746522 202.03268031 -8.89704 199.06192672 -9.07421875 196.04296875 C-9.13674332 195.13273956 -9.19926788 194.22251038 -9.26368713 193.28469849 C-9.46406212 190.25311884 -9.64020476 187.22079836 -9.8125 184.1875 C-9.87570435 183.1400058 -9.93890869 182.0925116 -10.00402832 181.01327515 C-11.98722652 147.62156902 -11.85506592 114.04368806 -10.41015625 80.62890625 C-9.92591941 68.90380878 -9.77807634 57.16601797 -9.5708313 45.43338013 C-9.46746593 39.58439965 -9.34309324 33.7366047 -9.19140625 27.88867188 C-9.14627205 25.92533422 -9.11148975 23.961737 -9.0859375 21.99804688 C-9.04806758 19.09153039 -8.97998581 16.18704819 -8.90625 13.28125 C-8.9024231 12.40376099 -8.89859619 11.52627197 -8.89465332 10.62219238 C-8.69961153 4.62992683 -8.69961153 4.62992683 -5.77148438 1.41992188 C-3.125 0 -3.125 0 0 0 Z " fill="#FCFCFB" transform="translate(380.125,363)"/>
<path d="M0 0 C3.33447837 0.4862781 4.00414322 0.84268984 6 3.4375 C6.43161297 5.46970463 6.43161297 5.46970463 6.51261902 7.84352112 C6.55039963 8.74616196 6.58818024 9.6488028 6.62710571 10.57879639 C6.65372284 11.56801086 6.68033997 12.55722534 6.70776367 13.57641602 C6.74721603 14.62129684 6.7866684 15.66617767 6.82731628 16.74272156 C6.95503698 20.22527536 7.06177995 23.70813424 7.16796875 27.19140625 C7.2523084 29.64244676 7.33772015 32.09345059 7.42414856 34.54441833 C7.60348817 39.71693932 7.7730731 44.88965875 7.93530273 50.06274414 C8.13936999 56.5612943 8.36173758 63.05903811 8.59078121 69.5567503 C11.36501682 148.58696886 11.36501682 148.58696886 8.5625 184 C8.42509585 185.90029446 8.28903821 187.80068675 8.15429688 189.70117188 C7.79865203 194.61603543 7.43364326 199.52883919 7 204.4375 C6.93134735 205.25652802 6.8626947 206.07555603 6.79196167 206.91940308 C6.71615875 207.72193512 6.64035583 208.52446716 6.56225586 209.35131836 C6.49654892 210.07274521 6.43084198 210.79417206 6.36314392 211.53746033 C6 213.4375 6 213.4375 4.25 216.0625 C2 217.4375 2 217.4375 -0.5625 217.4375 C-3.65141827 216.17025148 -4.36249153 215.3624544 -6 212.4375 C-6.60720175 209.38612719 -6.77233095 206.32898029 -6.94921875 203.2265625 C-7.01174332 202.29122177 -7.07426788 201.35588104 -7.13868713 200.39219666 C-7.33887452 197.2830914 -7.5150358 194.17325964 -7.6875 191.0625 C-7.75070435 189.99071503 -7.81390869 188.91893005 -7.87902832 187.81466675 C-8.90246871 170.2103549 -9.27079015 152.63223366 -9.25 135 C-9.24922455 133.90592834 -9.2484491 132.81185669 -9.24765015 131.68463135 C-9.22123836 118.86972901 -8.91633527 106.08504058 -8.3793335 93.2817688 C-7.82660478 79.84824898 -7.65380516 66.40898961 -7.44775391 52.96655273 C-7.32518728 45.1228509 -7.17477733 37.28020722 -7 29.4375 C-6.97647461 28.26729309 -6.95294922 27.09708618 -6.92871094 25.89141846 C-6.8537209 22.42829065 -6.75798572 18.96634035 -6.65625 15.50390625 C-6.63566528 14.44904526 -6.61508057 13.39418427 -6.59387207 12.30735779 C-6.56096069 11.33138138 -6.52804932 10.35540497 -6.49414062 9.34985352 C-6.47113892 8.49488785 -6.44813721 7.63992218 -6.42443848 6.75904846 C-5.66248416 2.59139176 -4.21392856 0.61453125 0 0 Z " fill="#FCFCFB" transform="translate(327,355.5625)"/>
<path d="M0 0 C2.5 0.375 2.5 0.375 4.11499023 1.4465332 C6.16896278 4.30645373 6.05354175 7.20147084 6.16015625 10.60546875 C6.19492569 11.35819565 6.22969513 12.11092255 6.26551819 12.88645935 C6.37921727 15.44474486 6.47122385 18.00332234 6.5625 20.5625 C6.6377311 22.41002533 6.71376498 24.25751812 6.79052734 26.10498047 C7.00280828 31.35646902 7.19176904 36.60859422 7.37567139 41.86114502 C7.50538624 45.52722942 7.64112769 49.19305663 7.77783203 52.85888672 C9.52573224 100.13226591 11.19826425 147.30620343 6.85571289 194.48974609 C6.63813352 196.86624445 6.433578 199.24403754 6.25170898 201.62353516 C6.17895752 202.52120605 6.10620605 203.41887695 6.03125 204.34375 C5.97646484 205.07787109 5.92167969 205.81199219 5.86523438 206.56835938 C5.29805462 209.37392769 3.77201423 210.7626028 1.5 212.375 C-1.41517292 211.30098892 -3.27810176 210.59689824 -5.5 208.375 C-5.84767151 206.35501099 -5.84767151 206.35501099 -5.98657227 203.84033203 C-6.04325577 202.89819855 -6.09993927 201.95606506 -6.15834045 200.98538208 C-6.23658302 199.44961014 -6.23658302 199.44961014 -6.31640625 197.8828125 C-6.37779282 196.82649628 -6.43917938 195.77018005 -6.50242615 194.68185425 C-6.69790148 191.28833491 -6.88057825 187.89427047 -7.0625 184.5 C-7.25065947 181.14163115 -7.44145007 177.78342319 -7.63328552 174.42526245 C-7.75179085 172.33502247 -7.86773453 170.24463502 -7.98060608 168.15408325 C-8.25614376 163.14246467 -8.5942313 158.14671487 -9.03515625 153.14672852 C-10.33248486 137.98682649 -9.32090055 122.68462932 -8.70236206 107.50918579 C-7.94064851 88.73792451 -7.31733868 69.97035022 -6.9375 51.1875 C-6.89855818 49.33373598 -6.85941747 47.47997612 -6.82006836 45.6262207 C-6.61091457 35.7529086 -6.61091457 35.7529086 -6.41162109 25.87939453 C-6.33365706 22.00241031 -6.23132756 18.1263158 -6.125 14.25 C-6.10622803 13.15921143 -6.08745605 12.06842285 -6.06811523 10.94458008 C-6.03790283 9.97029053 -6.00769043 8.99600098 -5.9765625 7.9921875 C-5.95674316 7.16315918 -5.93692383 6.33413086 -5.91650391 5.47998047 C-5.20771583 1.89781706 -3.54448373 0.53167256 0 0 Z " fill="#FBFBFA" transform="translate(301.5,360.625)"/>
<path d="M0 0 C2.4375 0.875 2.4375 0.875 4.4375 3.875 C4.76168251 5.97145081 4.76168251 5.97145081 4.86782837 8.43579102 C4.91264847 9.37167053 4.95746857 10.30755005 5.00364685 11.27178955 C5.04320999 12.29713806 5.08277313 13.32248657 5.12353516 14.37890625 C5.17259506 15.46073181 5.22165497 16.54255737 5.27220154 17.65716553 C5.43275063 21.25027556 5.57983969 24.84380083 5.7265625 28.4375 C5.83511007 30.94363372 5.94436317 33.44973698 6.05429077 35.95581055 C6.28346955 41.22486675 6.5066558 46.49414096 6.72460938 51.76367188 C7.00200278 58.46910518 7.29172415 65.17393748 7.5853672 71.87867737 C7.81185207 77.06577229 8.03388701 82.25305007 8.25446701 87.44039917 C8.35960056 89.9088023 8.4656393 92.37716707 8.57265091 94.8454895 C9.39182278 113.87210369 10.02965907 132.71285736 8.44921875 151.71484375 C8.34535355 153.01023575 8.24148834 154.30562775 8.13447571 155.64027405 C7.91700498 158.33511469 7.69359288 161.02937946 7.46606445 163.72338867 C7.17597215 167.16846707 6.90551135 170.61479804 6.6396513 174.06182003 C6.37988807 177.38467784 6.10096251 180.70585718 5.82421875 184.02734375 C5.73033371 185.25952133 5.63644867 186.49169891 5.53971863 187.76121521 C5.43984146 188.90083206 5.33996429 190.04044891 5.23706055 191.21459961 C5.15489792 192.21430283 5.07273529 193.21400604 4.98808289 194.2440033 C4.37873409 197.15581677 3.38598354 198.66287482 1.4375 200.875 C-3.3125 200.125 -3.3125 200.125 -5.5625 197.875 C-5.9548645 195.9050293 -5.9548645 195.9050293 -6.15673828 193.44921875 C-6.23667023 192.52383301 -6.31660217 191.59844727 -6.3989563 190.64501953 C-6.47612885 189.62778809 -6.55330139 188.61055664 -6.6328125 187.5625 C-6.71876678 186.4885498 -6.80472107 185.41459961 -6.89328003 184.30810547 C-7.07444081 182.00151127 -7.25063377 179.69452257 -7.42236328 177.38720703 C-7.67610819 174.02590473 -7.955815 170.66758404 -8.23828125 167.30859375 C-11.14487898 130.6649692 -9.50746757 93.82084002 -8.01831055 57.14672852 C-7.78758929 51.45181962 -7.57822505 45.75632073 -7.37349987 40.06042576 C-7.21090932 35.62067551 -7.03530979 31.18151235 -6.85585976 26.74241447 C-6.77276816 24.63780115 -6.69424951 22.53300194 -6.62047386 20.42804146 C-6.51735017 17.52754104 -6.39620406 14.62834636 -6.27026367 11.72875977 C-6.24364655 10.87045563 -6.21702942 10.01215149 -6.18960571 9.12783813 C-5.90994229 3.31819667 -5.90994229 3.31819667 -4.19061756 1.12502956 C-2.5625 -0.125 -2.5625 -0.125 0 0 Z " fill="#FCFBFB" transform="translate(276.5625,372.125)"/>
<path d="M0 0 C1.2375 0.1546875 1.2375 0.1546875 2.5 0.3125 C4.67064355 3.56846533 4.76519476 4.5718419 4.84155273 8.34936523 C4.86951431 9.38698502 4.89747589 10.4246048 4.92628479 11.4936676 C4.94932175 12.62884323 4.9723587 13.76401886 4.99609375 14.93359375 C5.29725125 25.48631475 5.78930013 36.00158394 6.47265625 46.53515625 C6.56162492 47.92588861 6.65052228 49.31662553 6.73934937 50.70736694 C7.10211138 56.36089585 7.47248646 62.01391674 7.84594727 67.66674805 C9.46107281 92.18823354 9.56878661 115.62339077 7.47363281 140.14038086 C7.17786174 143.6026058 6.89701086 147.06586748 6.62001991 150.52963924 C6.35126939 153.86290771 6.0695588 157.195043 5.7890625 160.52734375 C5.69001617 161.76781967 5.59096985 163.00829559 5.48892212 164.28636169 C5.38896942 165.42928177 5.28901672 166.57220184 5.18603516 167.74975586 C5.10165192 168.75469589 5.01726868 169.75963593 4.93032837 170.79502869 C4.5 173.3125 4.5 173.3125 2.5 176.3125 C0 176.625 0 176.625 -2.5 176.3125 C-4.86918331 173.94331669 -4.81673978 173.23578564 -5.07836914 169.99316406 C-5.15507339 169.09752747 -5.23177765 168.20189087 -5.31080627 167.27911377 C-5.38484177 166.30528748 -5.45887726 165.33146118 -5.53515625 164.328125 C-5.61873886 163.32094421 -5.70232147 162.31376343 -5.78843689 161.27606201 C-6.05495716 158.0388364 -6.30879759 154.8007528 -6.5625 151.5625 C-6.73681585 149.42571466 -6.9119369 147.28899484 -7.08789062 145.15234375 C-7.50392239 140.07253241 -7.90324106 134.9915922 -8.29571533 129.90991211 C-8.46890509 127.70786157 -8.65247156 125.50721619 -8.84326172 123.30664062 C-10.11662767 107.79350746 -9.4841678 92.28382821 -8.66015625 76.765625 C-8.57251138 75.05370896 -8.48523425 73.34177406 -8.39830017 71.62982178 C-8.21696054 68.07679505 -8.0326955 64.5239379 -7.84594727 60.97119141 C-7.60873829 56.45789534 -7.37677211 51.94434998 -7.1467371 47.43068314 C-6.92389532 43.06306798 -6.69834048 38.69559404 -6.47265625 34.328125 C-6.43102922 33.51794167 -6.3894022 32.70775833 -6.34651375 31.87302399 C-6.11468486 27.37891381 -5.873222 22.88553436 -5.61647415 18.39277649 C-5.53843442 16.99895467 -5.46391166 15.60493175 -5.39280319 14.21073914 C-5.29201894 12.24386619 -5.178426 10.27766207 -5.06420898 8.31152344 C-5.00337631 7.19791443 -4.94254364 6.08430542 -4.87986755 4.93695068 C-4.36947474 1.41071964 -3.56230404 0.445288 0 0 Z " fill="#FBFAFA" transform="translate(251.5,395.6875)"/>
<path d="M0 0 C1.65 0.33 3.3 0.66 5 1 C7.46169935 6.96193836 7.76544684 13.10006109 8.32421875 19.45703125 C8.43474075 20.67339767 8.54526276 21.8897641 8.65913391 23.14299011 C8.89054997 25.71893198 9.11809352 28.29522426 9.34204102 30.87182617 C9.68304701 34.76170447 10.04488275 38.64926026 10.40820312 42.53710938 C11.50852305 54.71904444 12.45706704 66.56849915 11.21810913 78.75973511 C10.96445832 81.36505935 10.76315511 83.97209631 10.56567383 86.58227539 C10.17587946 91.71647452 9.75715863 96.84768382 9.32543945 101.97851562 C9.0600393 105.15444619 8.80445791 108.33108244 8.54882812 111.5078125 C8.37820678 113.54952962 8.20700418 115.59119826 8.03515625 117.6328125 C7.96112076 118.5714212 7.88708527 119.51002991 7.81080627 120.4770813 C7.37005021 125.5657552 6.59279653 130.1430308 5 135 C3.125 135.625 3.125 135.625 1 136 C-1.79362037 133.20637963 -1.57107673 131.06519959 -2.0234375 127.15625 C-2.10516205 126.45101196 -2.1868866 125.74577393 -2.27108765 125.01916504 C-5.41146846 96.91472022 -7.38662241 68.50073252 -5.16796875 40.28125 C-5.04486832 38.70605843 -5.04486832 38.70605843 -4.91928101 37.0990448 C-4.66022163 33.83637162 -4.39403521 30.57436488 -4.125 27.3125 C-4.03813934 26.24842926 -3.95127869 25.18435852 -3.86178589 24.08804321 C-3.60800697 21.03298656 -3.34168506 17.9793205 -3.0703125 14.92578125 C-2.95450081 13.53673584 -2.95450081 13.53673584 -2.83634949 12.11962891 C-2.4321596 7.74835618 -1.98204811 3.99261863 0 0 Z " fill="#FBFAFA" transform="translate(224,436)"/>
<path d="M0 0 C1.32 0.33 2.64 0.66 4 1 C5.86703741 9.1303793 6.74332626 17.2638302 7.5 25.5625 C7.62717818 26.93653274 7.75445833 28.31055605 7.88183594 29.68457031 C8.13791325 32.46207114 8.3896332 35.23992622 8.63867188 38.01806641 C8.96850813 41.6529511 9.31778681 45.28538441 9.671875 48.91796875 C9.8657177 51.02854196 10.05849081 53.13921378 10.25 55.25 C10.34216797 56.16209229 10.43433594 57.07418457 10.52929688 58.01391602 C11.98314939 74.94198595 9.55018954 92.22439715 7.89819336 109.05810547 C7.55765904 112.5496348 7.23082591 116.04229246 6.90429688 119.53515625 C6.6883261 121.76310107 6.4715598 123.99096895 6.25390625 126.21875 C6.11004234 127.77946228 6.11004234 127.77946228 5.96327209 129.3717041 C5.86654709 130.33120972 5.76982208 131.29071533 5.67016602 132.27929688 C5.58879898 133.12133667 5.50743195 133.96337646 5.42359924 134.83093262 C5 137 5 137 3 140 C1.0625 139.625 1.0625 139.625 -1 139 C-2.28106406 136.43787189 -2.33084938 134.31645781 -2.57250977 131.45556641 C-2.67253799 130.29320465 -2.77256622 129.1308429 -2.87562561 127.93325806 C-3.03193703 126.03656876 -3.03193703 126.03656876 -3.19140625 124.1015625 C-3.30097153 122.80108978 -3.4105368 121.50061707 -3.52342224 120.16073608 C-3.755588 117.3985571 -3.98466235 114.63614268 -4.21166992 111.87353516 C-4.50022862 108.36549156 -4.79688914 104.85819092 -5.09605503 101.35103798 C-5.38260309 97.97660592 -5.66160285 94.60156051 -5.94140625 91.2265625 C-6.04763809 89.98234528 -6.15386993 88.73812805 -6.26332092 87.45620728 C-7.27751713 74.9574343 -6.97893268 62.863219 -5.9765625 50.37109375 C-5.86909173 49.00538882 -5.76178493 47.63967099 -5.65463257 46.27394104 C-5.43096344 43.43910502 -5.20351712 40.60460212 -4.97363281 37.77026367 C-4.67973282 34.13954725 -4.39834952 30.50797546 -4.12001991 26.87603664 C-3.90295767 24.06774598 -3.67795306 21.26013369 -3.45066452 18.45265388 C-3.2914834 16.4638405 -3.14014181 14.47440467 -2.98892212 12.48497009 C-2.88896942 11.28264236 -2.78901672 10.08031464 -2.68603516 8.84155273 C-2.60165192 7.78298569 -2.51726868 6.72441864 -2.43032837 5.6337738 C-2 3 -2 3 0 0 Z " fill="#FAFAF9" transform="translate(200,431)"/>
<path d="M0 0 C1.65 0.33 3.3 0.66 5 1 C5.79217533 8.41528751 6.57508958 15.83150651 7.34690857 23.24893951 C7.70575778 26.69492101 8.06752553 30.14053847 8.43652344 33.58544922 C11.08692366 58.37155793 10.74522743 80.72232649 8 105.5 C7.70919818 108.17298988 7.42097434 110.84625564 7.1328125 113.51953125 C6.43078392 120.01401537 5.71921611 126.50739799 5 133 C3.35 133.33 1.7 133.66 0 134 C-1.33785492 131.32429016 -1.39578293 128.95559907 -1.68359375 125.97265625 C-1.80565186 124.71839844 -1.92770996 123.46414063 -2.0534668 122.171875 C-2.18190165 120.802123 -2.3099024 119.43233024 -2.4375 118.0625 C-2.50280914 117.3720459 -2.56811829 116.6815918 -2.63540649 115.97021484 C-3.562902 106.15324086 -4.42581282 96.33134143 -5.1875 86.5 C-5.2712085 85.45980713 -5.35491699 84.41961426 -5.44116211 83.34790039 C-6.68018424 66.59509421 -5.43183683 50.31999968 -3.91870117 33.62524414 C-3.67915178 30.97706586 -3.44248823 28.32886191 -3.21166992 25.67993164 C-2.87627569 21.8317615 -2.53502921 17.98416201 -2.19140625 14.13671875 C-2.08719864 12.94729172 -1.98299103 11.75786469 -1.87562561 10.53239441 C-1.77559738 9.43977798 -1.67556915 8.34716156 -1.57250977 7.22143555 C-1.48590591 6.25852097 -1.39930206 5.29560638 -1.31007385 4.30351257 C-1 2 -1 2 0 0 Z " fill="#FAF9F9" transform="translate(175,434)"/>
<path d="M0 0 C1.32 0 2.64 0 4 0 C9.01130991 34.11955683 11.26882502 64.25864298 5.86351013 98.37835693 C5.09797391 103.2437001 4.48070878 108.09898056 4 113 C2.68 113 1.36 113 0 113 C-1.83149105 104.1026017 -2.88765277 95.15347053 -3.85986328 86.13110352 C-4.12346711 83.70162771 -4.39931502 81.2737445 -4.67578125 78.84570312 C-6.38068094 63.48741309 -6.00535016 48.80617369 -4.40087891 33.45825195 C-4.12442239 30.80696052 -3.86026065 28.15464874 -3.59765625 25.50195312 C-2.73257098 16.93075557 -1.79058458 8.43840093 0 0 Z " fill="#FBFAFA" transform="translate(151,445)"/>
<path d="M0 0 C0.99 0.33 1.98 0.66 3 1 C3.72569214 4.90792939 4.43701452 8.81820166 5.13623047 12.73095703 C5.49114646 14.70085986 5.8567664 16.66882467 6.22265625 18.63671875 C8.63944506 32.23978717 8.0201295 43.69578999 5.5 57.25 C5.25816294 58.59227681 5.01727207 59.93472445 4.77734375 61.27734375 C4.19412799 64.52002338 3.6015336 67.76067756 3 71 C1.68 71 0.36 71 -1 71 C-5.48780773 46.8302908 -6.55500106 25.16383142 -1 1 C-0.67 0.67 -0.34 0.34 0 0 Z " fill="#FAF9F9" transform="translate(129,466)"/>
</svg>
