<?xml version="1.0" encoding="UTF-8"?>
<svg version="1.1" xmlns="http://www.w3.org/2000/svg" width="1024" height="1024">
<path d="M0 0 C1.76585449 0.25740967 1.76585449 0.25740967 3.56738281 0.52001953 C79.16211666 11.80778403 151.38466436 41.25091761 212 88 C212.54865723 88.42249023 213.09731445 88.84498047 213.66259766 89.28027344 C220.68806806 94.70337408 227.5813947 100.25584265 234.32495117 106.02612305 C237.58366852 108.81401039 240.89227816 111.51854161 244.25 114.1875 C259.47263377 126.60014178 274.50253787 140.78854752 287.1640625 155.828125 C288.67515365 157.61571368 290.21269947 159.36556829 291.7734375 161.109375 C300.81996802 171.27707472 308.98761615 182.0058537 317 193 C317.53512207 193.72977051 318.07024414 194.45954102 318.62158203 195.21142578 C364.40299545 257.84667594 392.14861616 332.29923574 402 409 C402.24339111 410.77552246 402.24339111 410.77552246 402.49169922 412.58691406 C407.57269011 450.66550626 407.21460337 490.95980503 402 529 C401.83902832 530.25329102 401.67805664 531.50658203 401.51220703 532.79785156 C390.34645392 618.41268476 355.03622084 702.0578961 299 768 C298.09236424 769.08196106 297.18481745 770.16399676 296.27734375 771.24609375 C282.70850346 787.33625559 268.29997297 803.58613387 252.171875 817.1640625 C250.38428632 818.67515365 248.63443171 820.21269947 246.890625 821.7734375 C236.72292528 830.81996802 225.9941463 838.98761615 215 847 C214.27022949 847.53512207 213.54045898 848.07024414 212.78857422 848.62158203 C163.17733668 884.88347242 105.03239404 910.87079909 45 924 C43.84661133 924.25233398 42.69322266 924.50466797 41.50488281 924.76464844 C13.05657891 930.86448354 -16.26000453 935.08187639 -45.39453125 935.203125 C-46.53270798 935.21013931 -47.6708847 935.21715363 -48.84355164 935.22438049 C-52.49990853 935.24178942 -56.15610317 935.24823383 -59.8125 935.25 C-61.06498535 935.25067474 -62.3174707 935.25134949 -63.60791016 935.25204468 C-82.94129193 935.23550906 -101.8332589 934.64841057 -121 932 C-122.29583008 931.82839355 -123.59166016 931.65678711 -124.92675781 931.47998047 C-152.81923363 927.74880757 -180.16955894 921.51732043 -207 913 C-208.01416992 912.67837891 -209.02833984 912.35675781 -210.07324219 912.02539062 C-264.58469633 894.48264441 -316.34010366 866.10126684 -360 829 C-361.08196106 828.09236424 -362.16399676 827.18481745 -363.24609375 826.27734375 C-379.33625559 812.70850346 -395.58613387 798.29997297 -409.1640625 782.171875 C-410.67515365 780.38428632 -412.21269947 778.63443171 -413.7734375 776.890625 C-422.81996802 766.72292528 -430.98761615 755.9941463 -439 745 C-439.53512207 744.27022949 -440.07024414 743.54045898 -440.62158203 742.78857422 C-489.65177264 675.70855146 -519.22882807 593.76071465 -526 511 C-526.08612549 510.04287109 -526.17225098 509.08574219 -526.26098633 508.09960938 C-527.18630065 496.46520308 -527.18610799 484.83536201 -527.18530273 473.17041016 C-527.18747405 469.66686565 -527.20564631 466.16364475 -527.22460938 462.66015625 C-527.27528208 442.5789326 -526.08167505 422.63964931 -523.25 402.75 C-523.08081055 401.55366943 -522.91162109 400.35733887 -522.73730469 399.12475586 C-510.44201709 315.53099545 -475.87790213 234.57902174 -421 170 C-420.09236424 168.91803894 -419.18481745 167.83600324 -418.27734375 166.75390625 C-404.05123309 149.88434201 -388.89452637 133.23796657 -372 119 C-370.84484079 117.99522682 -369.69137149 116.98850939 -368.5390625 115.98046875 C-361.4865287 109.81564772 -354.37605039 103.77696771 -347 98 C-345.98035156 97.18402344 -344.96070313 96.36804688 -343.91015625 95.52734375 C-279.38153945 44.00434857 -203.60200185 11.89517273 -122 0 C-120.35789551 -0.2477417 -120.35789551 -0.2477417 -118.68261719 -0.50048828 C-80.38607698 -6.00639883 -38.24633742 -5.77016424 0 0 Z " fill="#3C3C64" transform="translate(574,48)"/>
<path d="M0 0 C6.63826445 -0.0916481 13.26982992 -0.0557896 19.90771484 0.05029297 C21.6839624 0.07712158 21.6839624 0.07712158 23.49609375 0.10449219 C108.47220373 1.57385065 193.59623894 13.5665098 377.72021484 84.67529297 C378.60966797 85.17738281 379.49912109 85.67947266 380.41552734 86.19677734 C388.80429484 91.14220401 396.29723529 97.34124628 400.40771484 106.36279297 C400.87177734 107.34892578 401.33583984 108.33505859 401.81396484 109.35107422 C405.39936656 118.19933345 405.37131856 130.01516591 402.28271484 139.05029297 C397.01336424 151.21033283 389.50872428 158.91558937 377.32568359 164.10498047 C372.59276835 165.95532859 368.4415011 166.30069857 363.40771484 166.36279297 C362.65490234 166.39179688 361.90208984 166.42080078 361.12646484 166.45068359 C350.5914858 166.56635482 341.83420113 161.72339602 332.90771484 156.61279297 C289.65285799 132.53880599 242.98627277 116.32499902 194.90771484 105.05029297 C194.23967834 104.89236267 193.57164185 104.73443237 192.88336182 104.57171631 C155.83790949 95.83246843 118.00566096 90.40479218 80.09405518 87.23455811 C78.03508284 87.06102757 75.97701767 86.87916191 73.91894531 86.6953125 C26.78498659 82.64873076 -22.05349363 83.40687877 -69.09228516 88.05029297 C-70.24908783 88.16274353 -70.24908783 88.16274353 -71.42926025 88.27746582 C-106.39203577 91.70054941 -141.90646902 97.04480882 -175.52978516 107.48779297 C-188.2025219 111.34390809 -200.96137806 112.35053827 -213.09228516 106.05029297 C-222.95055951 100.6759434 -230.37146879 92.75124547 -234.09228516 82.05029297 C-237.40591364 67.56500275 -235.65362952 56.74970748 -228.09228516 44.05029297 C-221.54872612 33.95833166 -210.34611042 29.20187848 -199.15478516 26.11279297 C-198.00220215 25.7848877 -196.84961914 25.45698242 -195.66210938 25.11914062 C-132.08016565 7.4840695 -65.79296832 1.07005775 0 0 Z " fill="#FEFEFE" transform="translate(438.09228515625,282.94970703125)"/>
<path d="M0 0 C0.99 0.495 0.99 0.495 2 1 C1.35933594 1.6290625 0.71867188 2.258125 0.05859375 2.90625 C-4.516987 7.43409741 -8.97650615 11.98649661 -13.16015625 16.87890625 C-15.36900254 19.42541058 -17.65320554 21.8960016 -19.9375 24.375 C-24.52683295 29.42464029 -28.84319548 34.58999082 -33 40 C-33.52190918 40.67643555 -34.04381836 41.35287109 -34.58154297 42.04980469 C-85.42318314 108.15382004 -118.70656654 185.89699957 -128 269 C-128.08613556 269.74350708 -128.17227112 270.48701416 -128.26101685 271.25305176 C-130.12034078 287.66602585 -130.3595069 303.99452417 -130.3125 320.5 C-130.3105768 321.84067778 -130.30873627 323.18135569 -130.30697632 324.52203369 C-130.2707097 343.52268281 -129.88811862 362.18812488 -127 381 C-126.82307617 382.22058105 -126.64615234 383.44116211 -126.46386719 384.69873047 C-120.21561168 427.3519773 -108.26428971 469.07662247 -90.25634766 508.26123047 C-89.14735998 510.67876327 -88.05981557 513.10429854 -86.98046875 515.53515625 C-74.2562531 543.82152961 -56.90605821 570.47322178 -38 595 C-37.566875 595.56460938 -37.13375 596.12921875 -36.6875 596.7109375 C-31.36740045 603.63311249 -25.93991461 610.36083982 -20.02734375 616.79296875 C-18.24958586 618.72829285 -16.52423748 620.69403016 -14.8125 622.6875 C-0.419987 639.13135968 15.19280375 654.04738141 32 668 C32.59248535 668.49209961 33.1849707 668.98419922 33.79541016 669.49121094 C42.87214903 676.9856765 52.26890233 683.93701397 61.96826172 690.60351562 C63.25644131 691.48892625 64.54222976 692.37783417 65.82470703 693.27148438 C133.47635344 740.38297574 219.45693059 769.88634728 302.33984375 770.203125 C303.57254501 770.21013931 304.80524628 770.21715363 306.07530212 770.22438049 C310.02938502 770.24178429 313.98338696 770.24881404 317.9375 770.25 C318.61080605 770.25044186 319.28411209 770.25088371 319.97782135 770.25133896 C339.81400876 770.2581682 359.35068191 770.02072478 379 767 C380.21526367 766.82307617 381.43052734 766.64615234 382.68261719 766.46386719 C473.93096448 753.03066274 557.91064772 713.1831358 625.52929688 650.35302734 C626.96901781 649.02850321 628.42965724 647.72683227 629.890625 646.42578125 C668.21330685 612.15054842 699.80421497 567.28252705 721.97851562 521.11230469 C723.08779965 518.81844108 724.22317104 516.53845379 725.359375 514.2578125 C751.851104 460.55274949 767.97449258 397.84649702 768.203125 337.7578125 C768.21013931 336.52369629 768.21715363 335.28958008 768.22438049 334.01806641 C768.24180497 330.0536941 768.24881457 326.08940245 768.25 322.125 C768.25044186 321.45030418 768.25088371 320.77560837 768.25133896 320.08046722 C768.2581644 300.22285852 768.01392901 280.67140008 765 261 C764.82839355 259.80600586 764.65678711 258.61201172 764.47998047 257.38183594 C751.45254173 167.62173525 712.31395515 83.4802885 650.6484375 16.86328125 C648.08290948 14.08963517 645.53496711 11.30158986 643 8.5 C642.29875 7.7265625 641.5975 6.953125 640.875 6.15625 C639.14489605 4.16663046 637.55018297 2.13150158 636 0 C639.74061812 1.55935633 642.11465636 3.87054678 644.95703125 6.7265625 C645.65610847 7.42632706 645.65610847 7.42632706 646.36930847 8.14022827 C647.35413345 9.1280674 648.33653381 10.11832895 649.31665039 11.11083984 C650.79208043 12.60433047 652.2751574 14.0898575 653.75976562 15.57421875 C659.04608804 20.88021523 664.13212003 26.30520701 669 32 C669.99746646 33.12204904 670.99742116 34.24189165 672 35.359375 C680.96412226 45.44679482 689.05533557 56.09877452 697 67 C697.53512207 67.72977051 698.07024414 68.45954102 698.62158203 69.21142578 C744.40299545 131.84667594 772.14861616 206.29923574 782 283 C782.24339111 284.77552246 782.24339111 284.77552246 782.49169922 286.58691406 C787.57269011 324.66550626 787.21460337 364.95980503 782 403 C781.83902832 404.25329102 781.67805664 405.50658203 781.51220703 406.79785156 C770.34645392 492.41268476 735.03622084 576.0578961 679 642 C678.09236424 643.08196106 677.18481745 644.16399676 676.27734375 645.24609375 C662.70850346 661.33625559 648.29997297 677.58613387 632.171875 691.1640625 C630.38428632 692.67515365 628.63443171 694.21269947 626.890625 695.7734375 C616.72292528 704.81996802 605.9941463 712.98761615 595 721 C594.27022949 721.53512207 593.54045898 722.07024414 592.78857422 722.62158203 C543.17733668 758.88347242 485.03239404 784.87079909 425 798 C423.84661133 798.25233398 422.69322266 798.50466797 421.50488281 798.76464844 C393.05657891 804.86448354 363.73999547 809.08187639 334.60546875 809.203125 C333.46729202 809.21013931 332.3291153 809.21715363 331.15644836 809.22438049 C327.50009147 809.24178942 323.84389683 809.24823383 320.1875 809.25 C318.93501465 809.25067474 317.6825293 809.25134949 316.39208984 809.25204468 C297.05870807 809.23550906 278.1667411 808.64841057 259 806 C257.70416992 805.82839355 256.40833984 805.65678711 255.07324219 805.47998047 C227.18076637 801.74880757 199.83044106 795.51732043 173 787 C171.98583008 786.67837891 170.97166016 786.35675781 169.92675781 786.02539062 C115.41530367 768.48264441 63.65989634 740.10126684 20 703 C18.91803894 702.09236424 17.83600324 701.18481745 16.75390625 700.27734375 C0.66374441 686.70850346 -15.58613387 672.29997297 -29.1640625 656.171875 C-30.67515365 654.38428632 -32.21269947 652.63443171 -33.7734375 650.890625 C-42.81996802 640.72292528 -50.98761615 629.9941463 -59 619 C-59.53512207 618.27022949 -60.07024414 617.54045898 -60.62158203 616.78857422 C-109.65177264 549.70855146 -139.22882807 467.76071465 -146 385 C-146.08612549 384.04287109 -146.17225098 383.08574219 -146.26098633 382.09960938 C-147.18630065 370.46520308 -147.18610799 358.83536201 -147.18530273 347.17041016 C-147.18747405 343.66686565 -147.20564631 340.16364475 -147.22460938 336.66015625 C-147.27528208 316.5789326 -146.08167505 296.63964931 -143.25 276.75 C-143.08081055 275.55366943 -142.91162109 274.35733887 -142.73730469 273.12475586 C-130.44201709 189.53099545 -95.87790213 108.57902174 -41 44 C-40.09236424 42.91803894 -39.18481745 41.83600324 -38.27734375 40.75390625 C-26.23376058 26.47242027 -13.28793047 13.12043554 0 0 Z " fill="#000000" transform="translate(194,174)"/>
<path d="M0 0 C0.84175781 0.37833984 1.68351562 0.75667969 2.55078125 1.14648438 C56.98887862 25.63923093 56.98887862 25.63923093 66 46 C68.76135894 54.28407682 67.79447302 64.46947847 64.44140625 72.40234375 C58.95274241 82.29383821 50.70404569 88.29874444 39.9609375 91.6328125 C37.59786081 92.07530096 35.34207858 92.2452143 32.9375 92.3125 C32.08027344 92.34988281 31.22304688 92.38726563 30.33984375 92.42578125 C20.7244948 91.19996483 12.42923459 86.23842156 4.1875 81.4375 C-62.67957228 43.373335 -137.4338233 23.54898308 -213.625 15.6875 C-214.40786377 15.60609772 -215.19072754 15.52469543 -215.99731445 15.44082642 C-235.58460905 13.43503899 -255.12912277 12.79080701 -274.8125 12.8125 C-275.83669037 12.81310425 -276.86088074 12.8137085 -277.91610718 12.81433105 C-329.27904321 12.89606441 -379.57809085 19.63764839 -429.14477539 33.12084961 C-429.82134689 33.30445541 -430.4979184 33.48806122 -431.19499207 33.67723083 C-433.06462264 34.18735484 -434.93251913 34.70382222 -436.80029297 35.22070312 C-445.50581679 37.34095584 -453.52320269 35.91506953 -461.421875 31.7109375 C-469.7182333 26.50483346 -475.61703908 19.56192932 -478.5859375 10.140625 C-480.54541663 0.01048761 -478.86522956 -9.41309993 -473.6796875 -18.25 C-458.4937424 -40.15759293 -416.11722512 -43.36820202 -391.50878906 -47.91308594 C-365.9246416 -52.47460666 -339.94512447 -55.57799941 -314 -57 C-312.50001465 -57.08459473 -312.50001465 -57.08459473 -310.96972656 -57.17089844 C-226.17845293 -61.75054856 -140.55703568 -50.46315274 0 0 Z " fill="#FEFEFE" transform="translate(712,496)"/>
<path d="M0 0 C1.08055664 0.37350586 2.16111328 0.74701172 3.27441406 1.13183594 C88.15962224 30.77624856 88.15962224 30.77624856 100.12890625 53.02734375 C100.41636719 53.67832031 100.70382812 54.32929687 101 55 C101.680625 56.423125 101.680625 56.423125 102.375 57.875 C104.40014642 68.0007321 102.57692685 75.94673917 97.375 84.75 C91.19112663 90.60840635 84.37615109 94.07704538 75.875 94.3125 C74.57175781 94.36857422 74.57175781 94.36857422 73.2421875 94.42578125 C64.93608632 93.33498001 57.7523216 88.87109332 50.6875 84.625 C-11.83244635 48.17205742 -86.28698338 29.04981125 -158.5390625 28.796875 C-159.9004164 28.78980994 -161.26176995 28.78267726 -162.62312317 28.77548218 C-166.95708759 28.75593418 -171.29099563 28.75078921 -175.625 28.75 C-176.36495838 28.74970543 -177.10491676 28.74941086 -177.86729813 28.74910736 C-199.94396508 28.74768793 -221.85836749 28.97259156 -243.79296875 31.72460938 C-246.16436588 32.02050937 -248.53710699 32.30360738 -250.91015625 32.5859375 C-273.84959146 35.34640555 -296.46433356 39.192518 -319.04272461 44.10400391 C-345.35362073 49.74677914 -345.35362073 49.74677914 -355 44 C-361.37894487 39.69958773 -365.81736463 34.44723274 -368 27 C-369.13329504 17.3125068 -368.37382304 9.11096996 -362.375 1.3125 C-355.2825558 -6.15251768 -346.2970587 -8.28752848 -336.5 -10.3125 C-335.83149017 -10.4541861 -335.16298035 -10.59587219 -334.47421265 -10.74185181 C-256.76629321 -27.17146181 -176.1254725 -33.8782549 0 0 Z " fill="#FEFEFE" transform="translate(620,613)"/>
<path d="M0 0 C0.66 0.33 1.32 0.66 2 1 C-5.26 8.26 -12.52 15.52 -20 23 C-20 20 -20 20 -18.27734375 18.01953125 C-17.11912109 16.92705078 -17.11912109 16.92705078 -15.9375 15.8125 C-12.26518467 12.27298853 -8.86940905 8.64329085 -5.60546875 4.7265625 C-3.88634691 2.87777453 -2.0577016 1.45512087 0 0 Z " fill="#276551" transform="translate(206,164)"/>
</svg>
